<svg width="56" height="124" viewBox="0 0 6 14" fill="none" xmlns="http://www.w3.org/2000/svg">
<path d="M12.307 11.499L16.709 1.796H13.578V1.3H19.685V1.796H17.639L12.958 12.15V22.411H14.849V23H5.022V22.411H6.913V12.739L1.643 1.796H0.186V1.3H10.106V1.796H8.091L12.307 11.499ZM27.9061 22.659C28.9394 22.659 29.8487 22.38 30.6341 21.822C31.4401 21.264 31.8431 20.427 31.8431 19.311C31.8431 18.1743 31.4091 17.3063 30.5411 16.707C29.6937 16.1077 28.4744 15.591 26.8831 15.157C25.3124 14.7023 24.1654 14.3097 23.4421 13.979C22.7394 13.6483 22.0677 13.2143 21.4271 12.677C20.1457 11.6023 19.5051 9.93867 19.5051 7.686C19.5051 5.84667 20.1561 4.26567 21.4581 2.943C22.7807 1.62033 24.5787 0.958999 26.8521 0.958999C27.9474 0.958999 29.0841 1.12433 30.2621 1.455C31.4607 1.765 32.2047 1.92 32.4941 1.92C32.7834 1.92 33.0417 1.71333 33.2691 1.3H33.6101L33.8271 7.562H33.3311C32.3391 5.764 31.2954 4.32767 30.2001 3.253C29.1254 2.15767 27.9474 1.61 26.6661 1.61C25.4054 1.61 24.4237 1.90967 23.7211 2.509C23.0184 3.08767 22.6671 3.873 22.6671 4.865C22.6671 5.83633 23.0804 6.59067 23.9071 7.128C24.7544 7.64467 25.7877 8.06833 27.0071 8.399C28.2264 8.72967 29.0221 8.957 29.3941 9.081C29.7867 9.205 30.2621 9.38067 30.8201 9.608C31.3987 9.81467 31.8637 10.042 32.2151 10.29C32.5871 10.5173 32.9694 10.817 33.3621 11.189C33.7754 11.5403 34.0957 11.933 34.3231 12.367C34.8811 13.359 35.1601 14.537 35.1601 15.901C35.1601 18.133 34.4574 19.931 33.0521 21.295C31.6674 22.6383 29.8384 23.31 27.5651 23.31C26.3871 23.31 25.0334 23.155 23.5041 22.845C21.9954 22.535 21.1584 22.38 20.9931 22.38C20.7037 22.38 20.4247 22.69 20.1561 23.31H19.7221L19.4121 15.932H19.9391C20.8484 17.73 22.0057 19.3007 23.4111 20.644C24.8371 21.9873 26.3354 22.659 27.9061 22.659Z" fill="black"/>

</svg>
